<svg width="60" height="60" viewBox="0 0 60 60" fill="none" xmlns="http://www.w3.org/2000/svg">
<path d="M41.25 30C41.25 32.6016 41.1094 35.1094 40.8633 37.5H19.1484C18.8906 35.1094 18.7617 32.6016 18.7617 30C18.7617 27.3984 18.9023 24.8906 19.1484 22.5H40.8633C41.1211 24.8906 41.25 27.3984 41.25 30ZM44.625 22.5H59.0508C59.6719 24.9023 60 27.4102 60 30C60 32.5898 59.6719 35.0977 59.0508 37.5H44.625C44.8711 35.0859 45 32.5781 45 30C45 27.4219 44.8711 24.9141 44.625 22.5ZM57.8203 18.75H44.1445C42.9727 11.2617 40.6523 4.99219 37.6641 0.984375C46.8398 3.41016 54.3047 10.0664 57.8086 18.75H57.8203ZM40.3477 18.75H19.6523C20.3672 14.4844 21.4688 10.7109 22.8164 7.65234C24.0469 4.88672 25.418 2.88281 26.7422 1.61719C28.0547 0.375 29.1445 0 30 0C30.8555 0 31.9453 0.375 33.2578 1.61719C34.582 2.88281 35.9531 4.88672 37.1836 7.65234C38.543 10.6992 39.6328 14.4727 40.3477 18.75ZM15.8555 18.75H2.17969C5.69531 10.0664 13.1484 3.41016 22.3359 0.984375C19.3477 4.99219 17.0273 11.2617 15.8555 18.75ZM0.949219 22.5H15.375C15.1289 24.9141 15 27.4219 15 30C15 32.5781 15.1289 35.0859 15.375 37.5H0.949219C0.328125 35.0977 0 32.5898 0 30C0 27.4102 0.328125 24.9023 0.949219 22.5ZM22.8164 52.3359C21.457 49.2891 20.3672 45.5156 19.6523 41.25H40.3477C39.6328 45.5156 38.5312 49.2891 37.1836 52.3359C35.9531 55.1016 34.582 57.1055 33.2578 58.3711C31.9453 59.625 30.8555 60 30 60C29.1445 60 28.0547 59.625 26.7422 58.3828C25.418 57.1172 24.0469 55.1133 22.8164 52.3477V52.3359ZM15.8555 41.25C17.0273 48.7383 19.3477 55.0078 22.3359 59.0156C13.1484 56.5898 5.69531 49.9336 2.17969 41.25H15.8555ZM57.8203 41.25C54.3047 49.9336 46.8516 56.5898 37.6758 59.0156C40.6641 55.0078 42.9727 48.7383 44.1562 41.25H57.832H57.8203Z" fill="white"/>
<path d="M23.728 26.96V29.232H27.392V31.344H23.728V33.808H27.872V36H20.992V24.768H27.872V26.96H23.728ZM39.6963 36H36.9603L32.3843 29.072V36H29.6483V24.768H32.3843L36.9603 31.728V24.768H39.6963V36Z" fill="black"/>
</svg>
